<svg xmlns="http://www.w3.org/2000/svg" xmlns:xlink="http://www.w3.org/1999/xlink" width="300" zoomAndPan="magnify" viewBox="0 0 224.87999 225" height="300" preserveAspectRatio="xMidYMid meet" version="1.0"><defs><g/><clipPath id="aea39878de"><path d="M 67.464844 22.546875 L 157.414062 22.546875 L 157.414062 112.5 L 67.464844 112.5 Z M 67.464844 22.546875 " clip-rule="nonzero"/></clipPath></defs><g clip-path="url(#aea39878de)"><path fill="#fffffe" d="M 112.441406 22.546875 C 87.601562 22.546875 67.464844 42.683594 67.464844 67.523438 C 67.464844 92.363281 87.601562 112.5 112.441406 112.5 C 137.28125 112.5 157.414062 92.363281 157.414062 67.523438 C 157.414062 42.683594 137.28125 22.546875 112.441406 22.546875 Z M 138.59375 68.796875 C 137.3125 70.078125 135.417969 70.375 133.851562 69.691406 L 133.851562 86.75 C 133.851562 90.296875 130.976562 93.175781 127.429688 93.175781 L 97.453125 93.175781 C 93.902344 93.175781 91.027344 90.296875 91.027344 86.75 L 91.027344 69.691406 C 89.460938 70.375 87.570312 70.078125 86.289062 68.796875 C 84.613281 67.121094 84.613281 64.410156 86.289062 62.738281 L 109.410156 39.613281 C 111.085938 37.941406 113.796875 37.941406 115.46875 39.613281 L 138.59375 62.738281 C 140.265625 64.410156 140.265625 67.121094 138.59375 68.796875 Z M 138.59375 68.796875 " fill-opacity="1" fill-rule="nonzero"/></g><path fill="#fffffe" d="M 117.792969 69.621094 L 107.085938 69.621094 C 105.90625 69.621094 104.945312 70.582031 104.945312 71.761719 L 104.945312 84.609375 C 104.945312 85.792969 105.90625 86.75 107.085938 86.75 L 117.792969 86.75 C 118.976562 86.75 119.933594 85.792969 119.933594 84.609375 L 119.933594 71.761719 C 119.933594 70.578125 118.976562 69.621094 117.792969 69.621094 Z M 117.792969 69.621094 " fill-opacity="1" fill-rule="nonzero"/><g fill="#ffffff" fill-opacity="1"><g transform="translate(26.212573, 140.235203)"><g><path d="M 18.578125 -22.21875 C 18.578125 -21.957031 18.578125 -21.570312 18.578125 -21.0625 C 18.578125 -20.550781 18.570312 -19.96875 18.5625 -19.3125 C 18.5625 -18.664062 18.5625 -17.984375 18.5625 -17.265625 C 18.5625 -16.546875 18.554688 -15.847656 18.546875 -15.171875 C 18.535156 -14.492188 18.53125 -13.863281 18.53125 -13.28125 C 18.53125 -12.695312 18.53125 -12.21875 18.53125 -11.84375 C 18.53125 -10.445312 18.539062 -9.050781 18.5625 -7.65625 C 18.59375 -6.257812 18.628906 -4.972656 18.671875 -3.796875 C 18.710938 -2.617188 18.75 -1.625 18.78125 -0.8125 C 18.8125 -0.0078125 18.828125 0.492188 18.828125 0.703125 L 21.65625 0.703125 C 21.875 0.703125 22.078125 0.75 22.265625 0.84375 C 22.453125 0.945312 22.546875 1.078125 22.546875 1.234375 C 22.546875 1.492188 22.347656 1.625 21.953125 1.625 L 15.8125 1.625 C 15.53125 1.625 15.253906 1.597656 14.984375 1.546875 C 14.722656 1.503906 14.59375 1.398438 14.59375 1.234375 C 14.59375 1.054688 14.691406 0.9375 14.890625 0.875 C 15.085938 0.820312 15.273438 0.796875 15.453125 0.796875 C 15.648438 0.796875 15.859375 0.789062 16.078125 0.78125 C 16.304688 0.769531 16.515625 0.71875 16.703125 0.625 C 16.890625 0.539062 17.039062 0.40625 17.15625 0.21875 C 17.28125 0.03125 17.34375 -0.226562 17.34375 -0.5625 L 17.34375 -11.84375 C 16.570312 -11.84375 15.832031 -11.851562 15.125 -11.875 C 14.5 -11.875 13.851562 -11.878906 13.1875 -11.890625 C 12.53125 -11.898438 11.945312 -11.90625 11.4375 -11.90625 C 10.425781 -11.90625 9.414062 -11.898438 8.40625 -11.890625 C 7.40625 -11.878906 6.40625 -11.863281 5.40625 -11.84375 L 5.40625 -0.921875 L 8.25 -0.921875 C 8.625 -0.921875 8.863281 -0.867188 8.96875 -0.765625 C 9.070312 -0.671875 9.125 -0.546875 9.125 -0.390625 C 9.125 -0.128906 8.929688 0 8.546875 0 L 2.28125 0 C 2 0 1.722656 -0.0195312 1.453125 -0.0625 C 1.191406 -0.113281 1.0625 -0.222656 1.0625 -0.390625 C 1.0625 -0.566406 1.160156 -0.679688 1.359375 -0.734375 C 1.554688 -0.796875 1.742188 -0.828125 1.921875 -0.828125 C 2.117188 -0.828125 2.335938 -0.832031 2.578125 -0.84375 C 2.828125 -0.851562 3.066406 -0.898438 3.296875 -0.984375 C 3.523438 -1.078125 3.710938 -1.21875 3.859375 -1.40625 C 4.003906 -1.59375 4.078125 -1.851562 4.078125 -2.1875 C 4.078125 -3.800781 4.097656 -5.378906 4.140625 -6.921875 C 4.179688 -8.472656 4.203125 -10.113281 4.203125 -11.84375 C 4.203125 -13.582031 4.179688 -15.390625 4.140625 -17.265625 C 4.097656 -19.148438 4.078125 -20.957031 4.078125 -22.6875 C 4.078125 -22.863281 3.992188 -22.992188 3.828125 -23.078125 C 3.660156 -23.171875 3.453125 -23.238281 3.203125 -23.28125 C 2.960938 -23.320312 2.703125 -23.347656 2.421875 -23.359375 C 2.148438 -23.367188 1.914062 -23.375 1.71875 -23.375 C 1.5 -23.375 1.257812 -23.394531 1 -23.4375 C 0.75 -23.488281 0.625 -23.613281 0.625 -23.8125 C 0.625 -24.03125 0.757812 -24.160156 1.03125 -24.203125 C 1.3125 -24.242188 1.539062 -24.265625 1.71875 -24.265625 L 7.09375 -24.265625 C 7.71875 -24.265625 8.125 -24.226562 8.3125 -24.15625 C 8.5 -24.082031 8.59375 -23.96875 8.59375 -23.8125 C 8.59375 -23.59375 8.46875 -23.460938 8.21875 -23.421875 C 7.976562 -23.390625 7.738281 -23.375 7.5 -23.375 C 7.40625 -23.375 7.242188 -23.367188 7.015625 -23.359375 C 6.785156 -23.347656 6.550781 -23.320312 6.3125 -23.28125 C 6.082031 -23.238281 5.875 -23.164062 5.6875 -23.0625 C 5.5 -22.957031 5.40625 -22.816406 5.40625 -22.640625 L 5.40625 -12.96875 C 6.40625 -12.925781 7.40625 -12.90625 8.40625 -12.90625 C 9.414062 -12.90625 10.425781 -12.90625 11.4375 -12.90625 C 11.925781 -12.90625 12.507812 -12.90625 13.1875 -12.90625 C 13.875 -12.90625 14.519531 -12.910156 15.125 -12.921875 C 15.738281 -12.929688 16.25 -12.941406 16.65625 -12.953125 C 17.070312 -12.960938 17.269531 -12.96875 17.25 -12.96875 L 17.25 -22.28125 C 17.25 -22.457031 17.179688 -22.585938 17.046875 -22.671875 C 16.910156 -22.765625 16.738281 -22.828125 16.53125 -22.859375 C 16.320312 -22.898438 16.09375 -22.925781 15.84375 -22.9375 C 15.601562 -22.945312 15.382812 -22.953125 15.1875 -22.953125 C 14.96875 -22.953125 14.726562 -22.976562 14.46875 -23.03125 C 14.21875 -23.082031 14.09375 -23.207031 14.09375 -23.40625 C 14.09375 -23.613281 14.226562 -23.738281 14.5 -23.78125 C 14.78125 -23.820312 15.007812 -23.84375 15.1875 -23.84375 L 20.5625 -23.84375 C 21.195312 -23.84375 21.609375 -23.804688 21.796875 -23.734375 C 21.984375 -23.671875 22.078125 -23.5625 22.078125 -23.40625 C 22.078125 -23.1875 21.953125 -23.054688 21.703125 -23.015625 C 21.453125 -22.972656 21.210938 -22.953125 20.984375 -22.953125 C 20.878906 -22.953125 20.695312 -22.945312 20.4375 -22.9375 C 20.1875 -22.925781 19.921875 -22.898438 19.640625 -22.859375 C 19.367188 -22.828125 19.125 -22.753906 18.90625 -22.640625 C 18.6875 -22.535156 18.578125 -22.394531 18.578125 -22.21875 Z M 18.578125 -22.21875 "/></g></g></g><g fill="#ffffff" fill-opacity="1"><g transform="translate(49.105269, 140.235203)"><g><path d="M 14 -6.96875 C 14 -5.75 13.796875 -4.679688 13.390625 -3.765625 C 12.992188 -2.847656 12.472656 -2.085938 11.828125 -1.484375 C 11.191406 -0.890625 10.476562 -0.4375 9.6875 -0.125 C 8.90625 0.175781 8.117188 0.328125 7.328125 0.328125 C 6.460938 0.328125 5.644531 0.15625 4.875 -0.1875 C 4.101562 -0.53125 3.429688 -1.015625 2.859375 -1.640625 C 2.296875 -2.273438 1.835938 -3.03125 1.484375 -3.90625 C 1.140625 -4.789062 0.96875 -5.753906 0.96875 -6.796875 C 0.96875 -7.816406 1.132812 -8.765625 1.46875 -9.640625 C 1.8125 -10.523438 2.285156 -11.28125 2.890625 -11.90625 C 3.503906 -12.539062 4.222656 -13.039062 5.046875 -13.40625 C 5.878906 -13.769531 6.796875 -13.953125 7.796875 -13.953125 C 8.828125 -13.953125 9.726562 -13.765625 10.5 -13.390625 C 11.28125 -13.015625 11.925781 -12.503906 12.4375 -11.859375 C 12.945312 -11.222656 13.332031 -10.484375 13.59375 -9.640625 C 13.863281 -8.804688 14 -7.914062 14 -6.96875 Z M 7.65625 -13.0625 C 6.945312 -13.0625 6.269531 -12.921875 5.625 -12.640625 C 4.988281 -12.367188 4.421875 -11.96875 3.921875 -11.4375 C 3.429688 -10.90625 3.035156 -10.253906 2.734375 -9.484375 C 2.441406 -8.710938 2.296875 -7.828125 2.296875 -6.828125 C 2.296875 -5.785156 2.453125 -4.867188 2.765625 -4.078125 C 3.085938 -3.285156 3.5 -2.632812 4 -2.125 C 4.5 -1.613281 5.046875 -1.226562 5.640625 -0.96875 C 6.234375 -0.71875 6.816406 -0.59375 7.390625 -0.59375 C 7.941406 -0.59375 8.53125 -0.710938 9.15625 -0.953125 C 9.789062 -1.203125 10.375 -1.585938 10.90625 -2.109375 C 11.4375 -2.628906 11.875 -3.285156 12.21875 -4.078125 C 12.5625 -4.878906 12.734375 -5.832031 12.734375 -6.9375 C 12.734375 -7.820312 12.609375 -8.640625 12.359375 -9.390625 C 12.117188 -10.140625 11.773438 -10.785156 11.328125 -11.328125 C 10.890625 -11.867188 10.351562 -12.289062 9.71875 -12.59375 C 9.09375 -12.90625 8.40625 -13.0625 7.65625 -13.0625 Z M 7.65625 -13.0625 "/></g></g></g><g fill="#ffffff" fill-opacity="1"><g transform="translate(64.111062, 140.235203)"><g><path d="M 21.359375 -0.171875 L 22.75 -0.171875 C 23.394531 -0.171875 23.804688 -0.132812 23.984375 -0.0625 C 24.171875 0 24.265625 0.078125 24.265625 0.171875 C 24.265625 0.410156 23.867188 0.539062 23.078125 0.5625 C 22.921875 0.5625 22.648438 0.566406 22.265625 0.578125 C 21.878906 0.585938 21.46875 0.597656 21.03125 0.609375 C 20.601562 0.617188 20.179688 0.625 19.765625 0.625 C 19.347656 0.625 19.023438 0.625 18.796875 0.625 C 17.960938 0.625 17.414062 0.597656 17.15625 0.546875 C 16.90625 0.492188 16.78125 0.398438 16.78125 0.265625 C 16.78125 0.0234375 17.007812 -0.109375 17.46875 -0.140625 L 19.359375 -0.296875 C 19.554688 -0.316406 19.707031 -0.367188 19.8125 -0.453125 C 19.914062 -0.546875 19.988281 -0.800781 20.03125 -1.21875 C 20.050781 -1.394531 20.070312 -1.664062 20.09375 -2.03125 C 20.113281 -2.394531 20.132812 -2.816406 20.15625 -3.296875 C 20.175781 -3.773438 20.191406 -4.289062 20.203125 -4.84375 C 20.222656 -5.394531 20.234375 -5.945312 20.234375 -6.5 C 20.234375 -7.519531 20.191406 -8.394531 20.109375 -9.125 C 20.035156 -9.851562 19.894531 -10.441406 19.6875 -10.890625 C 19.488281 -11.347656 19.203125 -11.6875 18.828125 -11.90625 C 18.453125 -12.125 17.96875 -12.234375 17.375 -12.234375 C 16.800781 -12.234375 16.289062 -12.148438 15.84375 -11.984375 C 15.40625 -11.816406 15.015625 -11.585938 14.671875 -11.296875 C 14.328125 -11.015625 14.023438 -10.6875 13.765625 -10.3125 C 13.515625 -9.9375 13.300781 -9.550781 13.125 -9.15625 L 13.125 -1.03125 L 14.625 -1.03125 C 15.082031 -1.03125 15.378906 -0.992188 15.515625 -0.921875 C 15.648438 -0.859375 15.71875 -0.773438 15.71875 -0.671875 C 15.71875 -0.578125 15.648438 -0.488281 15.515625 -0.40625 C 15.390625 -0.332031 15.238281 -0.296875 15.0625 -0.296875 C 14.988281 -0.296875 14.726562 -0.296875 14.28125 -0.296875 C 13.84375 -0.296875 13.363281 -0.289062 12.84375 -0.28125 C 12.332031 -0.269531 11.847656 -0.265625 11.390625 -0.265625 C 10.929688 -0.265625 10.628906 -0.265625 10.484375 -0.265625 C 9.554688 -0.265625 9.09375 -0.382812 9.09375 -0.625 C 9.09375 -0.800781 9.378906 -0.914062 9.953125 -0.96875 L 10.984375 -1.09375 C 11.179688 -1.113281 11.335938 -1.179688 11.453125 -1.296875 C 11.578125 -1.421875 11.664062 -1.570312 11.71875 -1.75 C 11.78125 -1.9375 11.820312 -2.15625 11.84375 -2.40625 C 11.863281 -2.65625 11.882812 -2.925781 11.90625 -3.21875 C 11.925781 -3.550781 11.941406 -3.90625 11.953125 -4.28125 C 11.960938 -4.65625 11.96875 -5.21875 11.96875 -5.96875 C 11.96875 -6.007812 11.96875 -6.21875 11.96875 -6.59375 C 11.96875 -6.96875 11.957031 -7.378906 11.9375 -7.828125 C 11.875 -9.191406 11.65625 -10.21875 11.28125 -10.90625 C 10.90625 -11.59375 10.207031 -11.9375 9.1875 -11.9375 C 8.632812 -11.9375 8.113281 -11.835938 7.625 -11.640625 C 7.132812 -11.441406 6.703125 -11.140625 6.328125 -10.734375 C 5.953125 -10.335938 5.648438 -9.847656 5.421875 -9.265625 C 5.191406 -8.679688 5.078125 -8.003906 5.078125 -7.234375 L 5.078125 -0.859375 L 6.265625 -0.859375 C 6.890625 -0.859375 7.320312 -0.800781 7.5625 -0.6875 C 7.800781 -0.582031 7.921875 -0.472656 7.921875 -0.359375 C 7.921875 -0.140625 7.710938 -0.03125 7.296875 -0.03125 C 7.222656 -0.03125 7.117188 -0.03125 6.984375 -0.03125 C 6.859375 -0.03125 6.601562 -0.0351562 6.21875 -0.046875 C 5.832031 -0.0546875 5.269531 -0.0625 4.53125 -0.0625 C 3.789062 -0.0625 2.765625 -0.0625 1.453125 -0.0625 C 1.296875 -0.0625 1.15625 -0.0976562 1.03125 -0.171875 C 0.914062 -0.253906 0.859375 -0.34375 0.859375 -0.4375 C 0.859375 -0.632812 1.113281 -0.742188 1.625 -0.765625 C 2.070312 -0.804688 2.425781 -0.828125 2.6875 -0.828125 C 2.945312 -0.828125 3.140625 -0.847656 3.265625 -0.890625 C 3.390625 -0.929688 3.472656 -1.015625 3.515625 -1.140625 C 3.554688 -1.265625 3.597656 -1.472656 3.640625 -1.765625 C 3.671875 -2.160156 3.726562 -2.898438 3.8125 -3.984375 C 3.90625 -5.066406 3.953125 -6.335938 3.953125 -7.796875 C 3.953125 -8.679688 3.929688 -9.378906 3.890625 -9.890625 C 3.859375 -10.410156 3.804688 -10.800781 3.734375 -11.0625 C 3.671875 -11.332031 3.585938 -11.5 3.484375 -11.5625 C 3.390625 -11.632812 3.289062 -11.671875 3.1875 -11.671875 L 2.21875 -11.671875 C 0.78125 -11.671875 0.0625 -11.789062 0.0625 -12.03125 C 0.0625 -12.125 0.171875 -12.207031 0.390625 -12.28125 C 0.617188 -12.363281 0.925781 -12.429688 1.3125 -12.484375 C 1.695312 -12.535156 2.15625 -12.570312 2.6875 -12.59375 C 3.21875 -12.625 3.789062 -12.640625 4.40625 -12.640625 C 4.5625 -12.640625 4.675781 -12.59375 4.75 -12.5 C 4.832031 -12.414062 4.882812 -12.25 4.90625 -12 L 5 -10.078125 C 5.351562 -10.941406 5.898438 -11.613281 6.640625 -12.09375 C 7.390625 -12.582031 8.25 -12.828125 9.21875 -12.828125 C 11.03125 -12.828125 12.242188 -11.96875 12.859375 -10.25 C 13.421875 -11.21875 14.09375 -11.9375 14.875 -12.40625 C 15.65625 -12.882812 16.507812 -13.125 17.4375 -13.125 C 18.550781 -13.125 19.484375 -12.742188 20.234375 -11.984375 C 20.984375 -11.222656 21.359375 -10.003906 21.359375 -8.328125 Z M 21.359375 -0.171875 "/></g></g></g><g fill="#ffffff" fill-opacity="1"><g transform="translate(87.949006, 140.235203)"><g><path d="M 10.875 -8.65625 C 11.207031 -8.65625 11.375 -8.832031 11.375 -9.1875 C 11.375 -9.582031 11.296875 -10.007812 11.140625 -10.46875 C 10.984375 -10.9375 10.734375 -11.363281 10.390625 -11.75 C 10.054688 -12.144531 9.628906 -12.472656 9.109375 -12.734375 C 8.585938 -13.003906 7.960938 -13.140625 7.234375 -13.140625 C 6.484375 -13.140625 5.835938 -13.003906 5.296875 -12.734375 C 4.753906 -12.460938 4.289062 -12.101562 3.90625 -11.65625 C 3.53125 -11.207031 3.226562 -10.710938 3 -10.171875 C 2.769531 -9.628906 2.609375 -9.085938 2.515625 -8.546875 Z M 2.390625 -7.65625 C 2.367188 -7.4375 2.351562 -7.222656 2.34375 -7.015625 C 2.332031 -6.804688 2.328125 -6.613281 2.328125 -6.4375 C 2.328125 -5.726562 2.410156 -5.03125 2.578125 -4.34375 C 2.753906 -3.65625 3.03125 -3.035156 3.40625 -2.484375 C 3.789062 -1.929688 4.289062 -1.484375 4.90625 -1.140625 C 5.53125 -0.796875 6.289062 -0.625 7.1875 -0.625 C 7.988281 -0.625 8.691406 -0.757812 9.296875 -1.03125 C 9.910156 -1.3125 10.421875 -1.675781 10.828125 -2.125 C 11.234375 -2.582031 11.539062 -3.101562 11.75 -3.6875 C 11.957031 -4.28125 12.0625 -4.894531 12.0625 -5.53125 C 12.0625 -5.882812 12.226562 -6.0625 12.5625 -6.0625 C 12.894531 -6.0625 13.0625 -5.882812 13.0625 -5.53125 C 13.0625 -4.757812 12.910156 -4.019531 12.609375 -3.3125 C 12.316406 -2.601562 11.910156 -1.976562 11.390625 -1.4375 C 10.867188 -0.894531 10.253906 -0.460938 9.546875 -0.140625 C 8.835938 0.171875 8.066406 0.328125 7.234375 0.328125 C 6.191406 0.328125 5.28125 0.148438 4.5 -0.203125 C 3.726562 -0.554688 3.082031 -1.046875 2.5625 -1.671875 C 2.050781 -2.304688 1.660156 -3.050781 1.390625 -3.90625 C 1.128906 -4.769531 1 -5.691406 1 -6.671875 C 1 -7.753906 1.160156 -8.753906 1.484375 -9.671875 C 1.816406 -10.585938 2.265625 -11.367188 2.828125 -12.015625 C 3.398438 -12.671875 4.070312 -13.179688 4.84375 -13.546875 C 5.613281 -13.910156 6.441406 -14.09375 7.328125 -14.09375 C 8.273438 -14.09375 9.082031 -13.898438 9.75 -13.515625 C 10.414062 -13.128906 10.960938 -12.664062 11.390625 -12.125 C 11.816406 -11.582031 12.128906 -11.019531 12.328125 -10.4375 C 12.535156 -9.863281 12.640625 -9.378906 12.640625 -8.984375 C 12.640625 -8.671875 12.554688 -8.382812 12.390625 -8.125 C 12.222656 -7.863281 11.960938 -7.726562 11.609375 -7.71875 C 11.097656 -7.695312 10.472656 -7.6875 9.734375 -7.6875 C 8.992188 -7.6875 8.234375 -7.6875 7.453125 -7.6875 C 7.210938 -7.6875 6.863281 -7.6875 6.40625 -7.6875 C 5.957031 -7.6875 5.476562 -7.679688 4.96875 -7.671875 C 4.46875 -7.660156 3.984375 -7.65625 3.515625 -7.65625 C 3.046875 -7.65625 2.671875 -7.65625 2.390625 -7.65625 Z M 2.390625 -7.65625 "/></g></g></g><g fill="#ffffff" fill-opacity="1"><g transform="translate(101.773243, 140.235203)"><g/></g></g><g fill="#ffffff" fill-opacity="1"><g transform="translate(108.449047, 140.235203)"><g><path d="M 1.484375 -0.828125 C 1.773438 -0.828125 2.078125 -0.832031 2.390625 -0.84375 C 2.703125 -0.851562 2.988281 -0.878906 3.25 -0.921875 C 3.519531 -0.972656 3.742188 -1.039062 3.921875 -1.125 C 4.109375 -1.21875 4.203125 -1.351562 4.203125 -1.53125 C 4.203125 -2.988281 4.203125 -4.414062 4.203125 -5.8125 C 4.210938 -7.21875 4.21875 -8.363281 4.21875 -9.25 C 4.21875 -10.3125 4.207031 -11.484375 4.1875 -12.765625 C 4.175781 -14.046875 4.15625 -15.300781 4.125 -16.53125 C 4.09375 -17.757812 4.066406 -18.882812 4.046875 -19.90625 C 4.023438 -20.9375 4.003906 -21.71875 3.984375 -22.25 C 3.960938 -22.757812 3.75 -23.0625 3.34375 -23.15625 C 2.945312 -23.257812 2.328125 -23.3125 1.484375 -23.3125 C 1.203125 -23.3125 1 -23.351562 0.875 -23.4375 C 0.757812 -23.53125 0.703125 -23.632812 0.703125 -23.75 C 0.703125 -23.90625 0.773438 -24.015625 0.921875 -24.078125 C 1.078125 -24.140625 1.265625 -24.171875 1.484375 -24.171875 C 2.191406 -24.171875 2.972656 -24.175781 3.828125 -24.1875 C 4.679688 -24.195312 5.5 -24.207031 6.28125 -24.21875 C 7.0625 -24.226562 7.742188 -24.238281 8.328125 -24.25 C 8.921875 -24.257812 9.304688 -24.265625 9.484375 -24.265625 C 10.523438 -24.265625 11.523438 -24.128906 12.484375 -23.859375 C 13.441406 -23.585938 14.28125 -23.195312 15 -22.6875 C 15.71875 -22.175781 16.289062 -21.535156 16.71875 -20.765625 C 17.15625 -20.003906 17.375 -19.109375 17.375 -18.078125 C 17.375 -16.703125 16.988281 -15.503906 16.21875 -14.484375 C 15.445312 -13.472656 14.394531 -12.789062 13.0625 -12.4375 C 14.75 -12.125 16.09375 -11.441406 17.09375 -10.390625 C 18.101562 -9.347656 18.609375 -8.050781 18.609375 -6.5 C 18.609375 -5.300781 18.304688 -4.285156 17.703125 -3.453125 C 17.109375 -2.628906 16.304688 -1.957031 15.296875 -1.4375 C 14.296875 -0.925781 13.140625 -0.554688 11.828125 -0.328125 C 10.523438 -0.109375 9.160156 0 7.734375 0 L 2.125 0 C 1.675781 0 1.3125 -0.015625 1.03125 -0.046875 C 0.757812 -0.078125 0.625 -0.179688 0.625 -0.359375 C 0.625 -0.515625 0.703125 -0.628906 0.859375 -0.703125 C 1.015625 -0.785156 1.222656 -0.828125 1.484375 -0.828125 Z M 7.734375 -11.671875 C 7.367188 -11.671875 7.078125 -11.664062 6.859375 -11.65625 C 6.640625 -11.644531 6.457031 -11.632812 6.3125 -11.625 C 6.164062 -11.613281 6.023438 -11.601562 5.890625 -11.59375 C 5.765625 -11.582031 5.601562 -11.578125 5.40625 -11.578125 L 5.40625 -0.953125 C 6.269531 -0.953125 7.164062 -0.960938 8.09375 -0.984375 C 9.019531 -1.015625 9.925781 -1.085938 10.8125 -1.203125 C 11.695312 -1.328125 12.53125 -1.507812 13.3125 -1.75 C 14.101562 -2 14.796875 -2.332031 15.390625 -2.75 C 15.984375 -3.164062 16.453125 -3.679688 16.796875 -4.296875 C 17.140625 -4.921875 17.3125 -5.675781 17.3125 -6.5625 C 17.3125 -7.695312 17.03125 -8.597656 16.46875 -9.265625 C 15.90625 -9.941406 15.171875 -10.457031 14.265625 -10.8125 C 13.359375 -11.164062 12.332031 -11.394531 11.1875 -11.5 C 10.050781 -11.613281 8.898438 -11.671875 7.734375 -11.671875 Z M 7.796875 -23.25 C 7.460938 -23.25 7.144531 -23.242188 6.84375 -23.234375 C 6.550781 -23.222656 6.300781 -23.207031 6.09375 -23.1875 C 5.832031 -23.175781 5.601562 -23.160156 5.40625 -23.140625 L 5.40625 -12.765625 C 5.40625 -12.722656 5.585938 -12.695312 5.953125 -12.6875 C 6.316406 -12.675781 6.820312 -12.671875 7.46875 -12.671875 C 7.945312 -12.671875 8.488281 -12.6875 9.09375 -12.71875 C 9.707031 -12.75 10.332031 -12.8125 10.96875 -12.90625 C 11.613281 -13.007812 12.242188 -13.164062 12.859375 -13.375 C 13.484375 -13.59375 14.035156 -13.894531 14.515625 -14.28125 C 15.003906 -14.664062 15.394531 -15.148438 15.6875 -15.734375 C 15.976562 -16.316406 16.125 -17.03125 16.125 -17.875 C 16.125 -18.957031 15.878906 -19.847656 15.390625 -20.546875 C 14.898438 -21.242188 14.253906 -21.796875 13.453125 -22.203125 C 12.660156 -22.609375 11.769531 -22.882812 10.78125 -23.03125 C 9.800781 -23.175781 8.804688 -23.25 7.796875 -23.25 Z M 7.796875 -23.25 "/></g></g></g><g fill="#ffffff" fill-opacity="1"><g transform="translate(128.121996, 140.235203)"><g><path d="M 12.53125 -10.609375 C 12.53125 -11.140625 12.476562 -11.472656 12.375 -11.609375 C 12.28125 -11.742188 12.066406 -11.8125 11.734375 -11.8125 L 9.78125 -11.8125 C 9.113281 -11.8125 8.78125 -11.921875 8.78125 -12.140625 C 8.78125 -12.273438 8.921875 -12.382812 9.203125 -12.46875 C 9.484375 -12.5625 9.828125 -12.628906 10.234375 -12.671875 C 10.640625 -12.710938 11.046875 -12.738281 11.453125 -12.75 C 11.867188 -12.757812 12.207031 -12.765625 12.46875 -12.765625 C 12.726562 -12.765625 12.9375 -12.753906 13.09375 -12.734375 C 13.25 -12.710938 13.375 -12.65625 13.46875 -12.5625 C 13.570312 -12.476562 13.640625 -12.335938 13.671875 -12.140625 C 13.710938 -11.941406 13.734375 -11.664062 13.734375 -11.3125 C 13.734375 -11.09375 13.726562 -10.835938 13.71875 -10.546875 C 13.707031 -10.253906 13.695312 -9.847656 13.6875 -9.328125 C 13.6875 -8.816406 13.679688 -8.179688 13.671875 -7.421875 C 13.660156 -6.671875 13.65625 -5.734375 13.65625 -4.609375 C 13.65625 -3.304688 13.660156 -2.382812 13.671875 -1.84375 C 13.679688 -1.300781 13.6875 -0.984375 13.6875 -0.890625 C 13.6875 -0.691406 13.738281 -0.535156 13.84375 -0.421875 C 13.945312 -0.316406 14.164062 -0.265625 14.5 -0.265625 C 14.625 -0.265625 14.832031 -0.269531 15.125 -0.28125 C 15.425781 -0.289062 15.8125 -0.296875 16.28125 -0.296875 C 16.457031 -0.296875 16.632812 -0.269531 16.8125 -0.21875 C 16.988281 -0.164062 17.078125 -0.0820312 17.078125 0.03125 C 17.078125 0.1875 16.925781 0.300781 16.625 0.375 C 16.332031 0.457031 15.972656 0.519531 15.546875 0.5625 C 15.128906 0.601562 14.6875 0.628906 14.21875 0.640625 C 13.757812 0.648438 13.375 0.65625 13.0625 0.65625 C 12.84375 0.65625 12.691406 0.4375 12.609375 0 C 12.535156 -0.4375 12.488281 -1.234375 12.46875 -2.390625 C 12.332031 -2.078125 12.132812 -1.742188 11.875 -1.390625 C 11.625 -1.035156 11.304688 -0.707031 10.921875 -0.40625 C 10.535156 -0.113281 10.078125 0.125 9.546875 0.3125 C 9.015625 0.5 8.40625 0.59375 7.71875 0.59375 C 6.789062 0.59375 6.019531 0.421875 5.40625 0.078125 C 4.789062 -0.265625 4.289062 -0.722656 3.90625 -1.296875 C 3.53125 -1.867188 3.257812 -2.523438 3.09375 -3.265625 C 2.9375 -4.003906 2.859375 -4.757812 2.859375 -5.53125 L 2.859375 -11.875 C 2.859375 -12.332031 2.8125 -12.632812 2.71875 -12.78125 C 2.632812 -12.925781 2.367188 -13 1.921875 -13 L -0.0625 -13 C -0.238281 -13 -0.363281 -13.039062 -0.4375 -13.125 C -0.519531 -13.21875 -0.5625 -13.296875 -0.5625 -13.359375 C -0.5625 -13.492188 -0.398438 -13.597656 -0.078125 -13.671875 C 0.242188 -13.753906 0.617188 -13.816406 1.046875 -13.859375 C 1.472656 -13.898438 1.882812 -13.925781 2.28125 -13.9375 C 2.6875 -13.945312 2.976562 -13.953125 3.15625 -13.953125 C 3.570312 -13.953125 3.84375 -13.878906 3.96875 -13.734375 C 4.101562 -13.597656 4.171875 -13.222656 4.171875 -12.609375 C 4.171875 -12.359375 4.164062 -12.015625 4.15625 -11.578125 C 4.144531 -11.148438 4.128906 -10.675781 4.109375 -10.15625 C 4.085938 -9.644531 4.070312 -9.128906 4.0625 -8.609375 C 4.050781 -8.085938 4.046875 -7.613281 4.046875 -7.1875 C 4.046875 -6.46875 4.066406 -5.703125 4.109375 -4.890625 C 4.148438 -4.085938 4.273438 -3.347656 4.484375 -2.671875 C 4.703125 -1.992188 5.054688 -1.425781 5.546875 -0.96875 C 6.046875 -0.519531 6.738281 -0.296875 7.625 -0.296875 C 8.269531 -0.296875 8.882812 -0.414062 9.46875 -0.65625 C 10.050781 -0.90625 10.554688 -1.242188 10.984375 -1.671875 C 11.421875 -2.109375 11.769531 -2.617188 12.03125 -3.203125 C 12.300781 -3.785156 12.4375 -4.410156 12.4375 -5.078125 Z M 12.53125 -10.609375 "/></g></g></g><g fill="#ffffff" fill-opacity="1"><g transform="translate(144.811507, 140.235203)"><g><path d="M 12.96875 -0.796875 C 12.96875 -0.617188 12.988281 -0.476562 13.03125 -0.375 C 13.070312 -0.28125 13.15625 -0.207031 13.28125 -0.15625 C 13.40625 -0.113281 13.597656 -0.0820312 13.859375 -0.0625 C 14.128906 -0.0390625 14.492188 -0.03125 14.953125 -0.03125 C 15.703125 -0.0078125 16.195312 0.0195312 16.4375 0.0625 C 16.6875 0.113281 16.8125 0.238281 16.8125 0.4375 C 16.8125 0.539062 16.753906 0.640625 16.640625 0.734375 C 16.535156 0.835938 16.304688 0.890625 15.953125 0.890625 C 15.421875 0.890625 14.972656 0.890625 14.609375 0.890625 C 14.242188 0.890625 13.9375 0.882812 13.6875 0.875 C 13.445312 0.863281 13.253906 0.851562 13.109375 0.84375 C 12.972656 0.832031 12.859375 0.828125 12.765625 0.828125 C 12.347656 0.785156 12.066406 0.613281 11.921875 0.3125 C 11.773438 0.0195312 11.691406 -0.367188 11.671875 -0.859375 L 11.609375 -2.453125 C 11.140625 -1.609375 10.457031 -0.941406 9.5625 -0.453125 C 8.664062 0.0234375 7.6875 0.265625 6.625 0.265625 C 5.59375 0.265625 4.71875 0.0507812 4 -0.375 C 3.28125 -0.8125 2.695312 -1.359375 2.25 -2.015625 C 1.8125 -2.679688 1.492188 -3.40625 1.296875 -4.1875 C 1.097656 -4.976562 1 -5.726562 1 -6.4375 C 1 -6.789062 1.03125 -7.226562 1.09375 -7.75 C 1.15625 -8.28125 1.269531 -8.828125 1.4375 -9.390625 C 1.601562 -9.960938 1.832031 -10.53125 2.125 -11.09375 C 2.425781 -11.65625 2.804688 -12.15625 3.265625 -12.59375 C 3.722656 -13.039062 4.285156 -13.398438 4.953125 -13.671875 C 5.628906 -13.953125 6.421875 -14.09375 7.328125 -14.09375 C 7.921875 -14.09375 8.445312 -14.035156 8.90625 -13.921875 C 9.375 -13.816406 9.789062 -13.675781 10.15625 -13.5 C 10.519531 -13.320312 10.828125 -13.125 11.078125 -12.90625 C 11.335938 -12.695312 11.546875 -12.492188 11.703125 -12.296875 L 11.703125 -22.34375 C 11.703125 -22.59375 11.585938 -22.742188 11.359375 -22.796875 C 11.128906 -22.847656 10.847656 -22.875 10.515625 -22.875 C 10.066406 -22.875 9.632812 -22.863281 9.21875 -22.84375 C 8.800781 -22.820312 8.257812 -22.8125 7.59375 -22.8125 C 7.570312 -22.8125 7.515625 -22.8125 7.421875 -22.8125 C 7.335938 -22.8125 7.242188 -22.820312 7.140625 -22.84375 C 7.046875 -22.863281 6.957031 -22.894531 6.875 -22.9375 C 6.800781 -22.988281 6.765625 -23.054688 6.765625 -23.140625 C 6.765625 -23.316406 6.96875 -23.457031 7.375 -23.5625 C 7.789062 -23.664062 8.273438 -23.742188 8.828125 -23.796875 C 9.378906 -23.847656 9.914062 -23.878906 10.4375 -23.890625 C 10.96875 -23.898438 11.347656 -23.90625 11.578125 -23.90625 C 12.035156 -23.90625 12.378906 -23.851562 12.609375 -23.75 C 12.847656 -23.65625 12.96875 -23.332031 12.96875 -22.78125 C 12.96875 -22.425781 12.96875 -21.878906 12.96875 -21.140625 C 12.96875 -20.398438 12.960938 -19.570312 12.953125 -18.65625 C 12.941406 -17.738281 12.929688 -16.785156 12.921875 -15.796875 C 12.910156 -14.816406 12.898438 -13.90625 12.890625 -13.0625 C 12.878906 -12.21875 12.875 -11.476562 12.875 -10.84375 C 12.875 -10.207031 12.875 -9.796875 12.875 -9.609375 C 12.875 -9.265625 12.878906 -8.3125 12.890625 -6.75 C 12.898438 -5.1875 12.925781 -3.203125 12.96875 -0.796875 Z M 7.125 -0.625 C 8.070312 -0.625 8.84375 -0.828125 9.4375 -1.234375 C 10.039062 -1.648438 10.515625 -2.179688 10.859375 -2.828125 C 11.203125 -3.484375 11.441406 -4.203125 11.578125 -4.984375 C 11.722656 -5.773438 11.796875 -6.554688 11.796875 -7.328125 C 11.796875 -7.722656 11.773438 -8.195312 11.734375 -8.75 C 11.691406 -9.300781 11.601562 -9.820312 11.46875 -10.3125 C 11.34375 -10.726562 11.179688 -11.113281 10.984375 -11.46875 C 10.796875 -11.820312 10.546875 -12.128906 10.234375 -12.390625 C 9.929688 -12.660156 9.554688 -12.875 9.109375 -13.03125 C 8.671875 -13.1875 8.15625 -13.265625 7.5625 -13.265625 C 6.613281 -13.265625 5.8125 -13.078125 5.15625 -12.703125 C 4.5 -12.328125 3.953125 -11.820312 3.515625 -11.1875 C 3.078125 -10.5625 2.757812 -9.84375 2.5625 -9.03125 C 2.375 -8.226562 2.28125 -7.40625 2.28125 -6.5625 C 2.28125 -5.53125 2.40625 -4.640625 2.65625 -3.890625 C 2.914062 -3.148438 3.265625 -2.535156 3.703125 -2.046875 C 4.148438 -1.566406 4.664062 -1.207031 5.25 -0.96875 C 5.84375 -0.738281 6.46875 -0.625 7.125 -0.625 Z M 7.125 -0.625 "/></g></g></g><g fill="#ffffff" fill-opacity="1"><g transform="translate(160.733002, 140.235203)"><g><path d="M 7.296875 -13.59375 C 8.003906 -13.59375 8.703125 -13.40625 9.390625 -13.03125 C 9.609375 -13.382812 9.867188 -13.71875 10.171875 -14.03125 C 10.484375 -14.34375 10.800781 -14.625 11.125 -14.875 C 11.445312 -15.125 11.773438 -15.316406 12.109375 -15.453125 C 12.441406 -15.585938 12.757812 -15.65625 13.0625 -15.65625 C 13.257812 -15.65625 13.414062 -15.601562 13.53125 -15.5 C 13.644531 -15.40625 13.703125 -15.28125 13.703125 -15.125 C 13.703125 -14.96875 13.609375 -14.820312 13.421875 -14.6875 C 13.234375 -14.5625 13.003906 -14.453125 12.734375 -14.359375 C 12.265625 -14.222656 11.816406 -14.015625 11.390625 -13.734375 C 10.960938 -13.460938 10.5625 -13.039062 10.1875 -12.46875 C 10.71875 -12.03125 11.144531 -11.5 11.46875 -10.875 C 11.800781 -10.257812 11.96875 -9.597656 11.96875 -8.890625 C 11.96875 -8.285156 11.851562 -7.691406 11.625 -7.109375 C 11.394531 -6.523438 11.054688 -6.003906 10.609375 -5.546875 C 10.171875 -5.097656 9.628906 -4.734375 8.984375 -4.453125 C 8.347656 -4.179688 7.628906 -4.046875 6.828125 -4.046875 C 6.453125 -4.046875 6.082031 -4.070312 5.71875 -4.125 C 5.351562 -4.1875 5.003906 -4.289062 4.671875 -4.4375 C 4.160156 -4.21875 3.785156 -4.003906 3.546875 -3.796875 C 3.304688 -3.585938 3.1875 -3.257812 3.1875 -2.8125 C 3.1875 -2.351562 3.300781 -1.992188 3.53125 -1.734375 C 3.757812 -1.484375 4.09375 -1.289062 4.53125 -1.15625 C 4.976562 -1.019531 5.539062 -0.929688 6.21875 -0.890625 C 6.894531 -0.847656 7.695312 -0.816406 8.625 -0.796875 C 9.375 -0.773438 10.160156 -0.734375 10.984375 -0.671875 C 11.816406 -0.617188 12.578125 -0.476562 13.265625 -0.25 C 13.953125 -0.0195312 14.519531 0.316406 14.96875 0.765625 C 15.425781 1.222656 15.65625 1.863281 15.65625 2.6875 C 15.65625 3.394531 15.472656 4.039062 15.109375 4.625 C 14.742188 5.207031 14.234375 5.695312 13.578125 6.09375 C 12.929688 6.5 12.15625 6.816406 11.25 7.046875 C 10.34375 7.273438 9.347656 7.390625 8.265625 7.390625 C 7.304688 7.390625 6.390625 7.300781 5.515625 7.125 C 4.648438 6.945312 3.894531 6.675781 3.25 6.3125 C 2.601562 5.945312 2.085938 5.488281 1.703125 4.9375 C 1.316406 4.382812 1.125 3.742188 1.125 3.015625 C 1.125 1.316406 2.265625 0.242188 4.546875 -0.203125 C 3.773438 -0.335938 3.148438 -0.582031 2.671875 -0.9375 C 2.191406 -1.300781 1.953125 -1.863281 1.953125 -2.625 C 1.953125 -3.195312 2.101562 -3.644531 2.40625 -3.96875 C 2.707031 -4.300781 3.164062 -4.601562 3.78125 -4.875 C 3.15625 -5.289062 2.6875 -5.84375 2.375 -6.53125 C 2.070312 -7.21875 1.921875 -7.9375 1.921875 -8.6875 C 1.921875 -9.394531 2.046875 -10.039062 2.296875 -10.625 C 2.554688 -11.21875 2.914062 -11.738281 3.375 -12.1875 C 3.84375 -12.632812 4.40625 -12.976562 5.0625 -13.21875 C 5.726562 -13.46875 6.472656 -13.59375 7.296875 -13.59375 Z M 8.78125 0.03125 C 7.894531 0.03125 7.066406 0.0859375 6.296875 0.203125 C 5.523438 0.328125 4.847656 0.515625 4.265625 0.765625 C 3.679688 1.023438 3.222656 1.34375 2.890625 1.71875 C 2.554688 2.101562 2.390625 2.570312 2.390625 3.125 C 2.390625 3.695312 2.5625 4.191406 2.90625 4.609375 C 3.25 5.023438 3.703125 5.367188 4.265625 5.640625 C 4.828125 5.921875 5.46875 6.128906 6.1875 6.265625 C 6.90625 6.398438 7.648438 6.46875 8.421875 6.46875 C 9.328125 6.46875 10.148438 6.375 10.890625 6.1875 C 11.628906 6 12.253906 5.75 12.765625 5.4375 C 13.273438 5.125 13.671875 4.75 13.953125 4.3125 C 14.242188 3.875 14.390625 3.410156 14.390625 2.921875 C 14.390625 2.210938 14.128906 1.660156 13.609375 1.265625 C 13.085938 0.867188 12.488281 0.578125 11.8125 0.390625 C 11.144531 0.210938 10.507812 0.109375 9.90625 0.078125 C 9.3125 0.046875 8.9375 0.03125 8.78125 0.03125 Z M 7.0625 -12.703125 C 5.863281 -12.703125 4.914062 -12.332031 4.21875 -11.59375 C 3.53125 -10.851562 3.1875 -9.863281 3.1875 -8.625 C 3.1875 -7.445312 3.492188 -6.535156 4.109375 -5.890625 C 4.734375 -5.253906 5.628906 -4.9375 6.796875 -4.9375 C 7.992188 -4.9375 8.941406 -5.285156 9.640625 -5.984375 C 10.347656 -6.679688 10.703125 -7.648438 10.703125 -8.890625 C 10.703125 -10.078125 10.382812 -11.007812 9.75 -11.6875 C 9.125 -12.363281 8.226562 -12.703125 7.0625 -12.703125 Z M 7.0625 -12.703125 "/></g></g></g><g fill="#ffffff" fill-opacity="1"><g transform="translate(174.527695, 140.235203)"><g><path d="M 10.875 -8.65625 C 11.207031 -8.65625 11.375 -8.832031 11.375 -9.1875 C 11.375 -9.582031 11.296875 -10.007812 11.140625 -10.46875 C 10.984375 -10.9375 10.734375 -11.363281 10.390625 -11.75 C 10.054688 -12.144531 9.628906 -12.472656 9.109375 -12.734375 C 8.585938 -13.003906 7.960938 -13.140625 7.234375 -13.140625 C 6.484375 -13.140625 5.835938 -13.003906 5.296875 -12.734375 C 4.753906 -12.460938 4.289062 -12.101562 3.90625 -11.65625 C 3.53125 -11.207031 3.226562 -10.710938 3 -10.171875 C 2.769531 -9.628906 2.609375 -9.085938 2.515625 -8.546875 Z M 2.390625 -7.65625 C 2.367188 -7.4375 2.351562 -7.222656 2.34375 -7.015625 C 2.332031 -6.804688 2.328125 -6.613281 2.328125 -6.4375 C 2.328125 -5.726562 2.410156 -5.03125 2.578125 -4.34375 C 2.753906 -3.65625 3.03125 -3.035156 3.40625 -2.484375 C 3.789062 -1.929688 4.289062 -1.484375 4.90625 -1.140625 C 5.53125 -0.796875 6.289062 -0.625 7.1875 -0.625 C 7.988281 -0.625 8.691406 -0.757812 9.296875 -1.03125 C 9.910156 -1.3125 10.421875 -1.675781 10.828125 -2.125 C 11.234375 -2.582031 11.539062 -3.101562 11.75 -3.6875 C 11.957031 -4.28125 12.0625 -4.894531 12.0625 -5.53125 C 12.0625 -5.882812 12.226562 -6.0625 12.5625 -6.0625 C 12.894531 -6.0625 13.0625 -5.882812 13.0625 -5.53125 C 13.0625 -4.757812 12.910156 -4.019531 12.609375 -3.3125 C 12.316406 -2.601562 11.910156 -1.976562 11.390625 -1.4375 C 10.867188 -0.894531 10.253906 -0.460938 9.546875 -0.140625 C 8.835938 0.171875 8.066406 0.328125 7.234375 0.328125 C 6.191406 0.328125 5.28125 0.148438 4.5 -0.203125 C 3.726562 -0.554688 3.082031 -1.046875 2.5625 -1.671875 C 2.050781 -2.304688 1.660156 -3.050781 1.390625 -3.90625 C 1.128906 -4.769531 1 -5.691406 1 -6.671875 C 1 -7.753906 1.160156 -8.753906 1.484375 -9.671875 C 1.816406 -10.585938 2.265625 -11.367188 2.828125 -12.015625 C 3.398438 -12.671875 4.070312 -13.179688 4.84375 -13.546875 C 5.613281 -13.910156 6.441406 -14.09375 7.328125 -14.09375 C 8.273438 -14.09375 9.082031 -13.898438 9.75 -13.515625 C 10.414062 -13.128906 10.960938 -12.664062 11.390625 -12.125 C 11.816406 -11.582031 12.128906 -11.019531 12.328125 -10.4375 C 12.535156 -9.863281 12.640625 -9.378906 12.640625 -8.984375 C 12.640625 -8.671875 12.554688 -8.382812 12.390625 -8.125 C 12.222656 -7.863281 11.960938 -7.726562 11.609375 -7.71875 C 11.097656 -7.695312 10.472656 -7.6875 9.734375 -7.6875 C 8.992188 -7.6875 8.234375 -7.6875 7.453125 -7.6875 C 7.210938 -7.6875 6.863281 -7.6875 6.40625 -7.6875 C 5.957031 -7.6875 5.476562 -7.679688 4.96875 -7.671875 C 4.46875 -7.660156 3.984375 -7.65625 3.515625 -7.65625 C 3.046875 -7.65625 2.671875 -7.65625 2.390625 -7.65625 Z M 2.390625 -7.65625 "/></g></g></g><g fill="#ffffff" fill-opacity="1"><g transform="translate(188.351932, 140.235203)"><g><path d="M 2.625 -12.53125 C 2.25 -12.53125 1.828125 -12.519531 1.359375 -12.5 C 0.890625 -12.476562 0.476562 -12.46875 0.125 -12.46875 C 0 -12.46875 -0.125 -12.492188 -0.25 -12.546875 C -0.375 -12.609375 -0.4375 -12.71875 -0.4375 -12.875 C -0.4375 -12.976562 -0.382812 -13.0625 -0.28125 -13.125 C -0.1875 -13.195312 -0.00390625 -13.253906 0.265625 -13.296875 L 1.765625 -13.46875 C 2.160156 -13.507812 2.394531 -13.628906 2.46875 -13.828125 C 2.550781 -14.023438 2.59375 -14.34375 2.59375 -14.78125 C 2.59375 -15.1875 2.601562 -15.628906 2.625 -16.109375 C 2.644531 -16.597656 2.707031 -17.039062 2.8125 -17.4375 C 2.90625 -17.832031 2.988281 -18.066406 3.0625 -18.140625 C 3.144531 -18.222656 3.238281 -18.265625 3.34375 -18.265625 C 3.5 -18.265625 3.613281 -18.195312 3.6875 -18.0625 C 3.769531 -17.9375 3.8125 -17.578125 3.8125 -16.984375 L 3.8125 -13.53125 C 3.988281 -13.53125 4.316406 -13.535156 4.796875 -13.546875 C 5.285156 -13.554688 5.796875 -13.570312 6.328125 -13.59375 C 6.859375 -13.613281 7.351562 -13.628906 7.8125 -13.640625 C 8.28125 -13.648438 8.582031 -13.65625 8.71875 -13.65625 C 9.226562 -13.65625 9.484375 -13.523438 9.484375 -13.265625 C 9.484375 -13.171875 9.441406 -13.078125 9.359375 -12.984375 C 9.285156 -12.898438 9.160156 -12.847656 8.984375 -12.828125 C 8.117188 -12.742188 7.238281 -12.691406 6.34375 -12.671875 C 5.457031 -12.648438 4.613281 -12.625 3.8125 -12.59375 L 3.8125 -4.484375 C 3.8125 -4.078125 3.820312 -3.640625 3.84375 -3.171875 C 3.863281 -2.710938 3.945312 -2.289062 4.09375 -1.90625 C 4.238281 -1.519531 4.460938 -1.195312 4.765625 -0.9375 C 5.078125 -0.6875 5.519531 -0.5625 6.09375 -0.5625 C 6.519531 -0.5625 6.898438 -0.640625 7.234375 -0.796875 C 7.566406 -0.953125 7.847656 -1.148438 8.078125 -1.390625 C 8.304688 -1.628906 8.492188 -1.890625 8.640625 -2.171875 C 8.785156 -2.453125 8.898438 -2.734375 8.984375 -3.015625 C 9.078125 -3.328125 9.15625 -3.578125 9.21875 -3.765625 C 9.28125 -3.953125 9.414062 -4.046875 9.625 -4.046875 C 9.84375 -4.046875 9.972656 -3.972656 10.015625 -3.828125 C 10.054688 -3.679688 10.078125 -3.554688 10.078125 -3.453125 C 10.078125 -3.179688 10 -2.828125 9.84375 -2.390625 C 9.6875 -1.960938 9.429688 -1.546875 9.078125 -1.140625 C 8.734375 -0.734375 8.296875 -0.382812 7.765625 -0.09375 C 7.234375 0.1875 6.601562 0.328125 5.875 0.328125 C 4.757812 0.328125 3.929688 -0.078125 3.390625 -0.890625 C 3.203125 -1.179688 3.050781 -1.5 2.9375 -1.84375 C 2.832031 -2.1875 2.75 -2.539062 2.6875 -2.90625 C 2.625 -3.269531 2.585938 -3.617188 2.578125 -3.953125 C 2.578125 -4.296875 2.578125 -4.601562 2.578125 -4.875 Z M 2.625 -12.53125 "/></g></g></g></svg>