<svg xmlns="http://www.w3.org/2000/svg" xmlns:xlink="http://www.w3.org/1999/xlink" width="300" zoomAndPan="magnify" viewBox="0 0 224.87999 225" height="300" preserveAspectRatio="xMidYMid meet" version="1.0"><defs><g/></defs><g fill="#ffffff" fill-opacity="1"><g transform="translate(92.922721, 117.243593)"><g><path d="M 19.265625 -21.609375 C 19.265625 -19.515625 19.210938 -17.414062 19.109375 -15.3125 C 19.015625 -13.21875 18.890625 -11.125 18.734375 -9.03125 C 18.710938 -8.65625 18.6875 -8.144531 18.65625 -7.5 C 18.632812 -6.851562 18.585938 -6.160156 18.515625 -5.421875 C 18.441406 -4.679688 18.335938 -3.929688 18.203125 -3.171875 C 18.078125 -2.421875 17.882812 -1.734375 17.625 -1.109375 C 17.363281 -0.492188 17.023438 0.00390625 16.609375 0.390625 C 16.191406 0.785156 15.679688 0.984375 15.078125 0.984375 C 14.546875 0.984375 14.070312 0.867188 13.65625 0.640625 C 13.238281 0.410156 12.890625 0.113281 12.609375 -0.25 C 12.335938 -0.613281 12.125 -1.023438 11.96875 -1.484375 C 11.820312 -1.953125 11.75 -2.441406 11.75 -2.953125 C 11.75 -3.773438 11.773438 -4.609375 11.828125 -5.453125 C 11.878906 -6.296875 11.953125 -7.132812 12.046875 -7.96875 L 8.3125 -7.59375 C 8.238281 -6.9375 8.15625 -6.148438 8.0625 -5.234375 C 7.976562 -4.316406 7.800781 -3.4375 7.53125 -2.59375 C 7.269531 -1.75 6.875 -1.023438 6.34375 -0.421875 C 5.8125 0.179688 5.082031 0.484375 4.15625 0.484375 C 3.570312 0.484375 3.09375 0.351562 2.71875 0.09375 C 2.34375 -0.164062 2.039062 -0.503906 1.8125 -0.921875 C 1.582031 -1.335938 1.414062 -1.796875 1.3125 -2.296875 C 1.21875 -2.804688 1.171875 -3.285156 1.171875 -3.734375 C 1.171875 -5.242188 1.234375 -6.75 1.359375 -8.25 C 1.484375 -9.75 1.570312 -11.253906 1.625 -12.765625 C 1.675781 -14.359375 1.691406 -15.953125 1.671875 -17.546875 C 1.660156 -19.148438 1.679688 -20.753906 1.734375 -22.359375 C 1.765625 -22.890625 1.785156 -23.507812 1.796875 -24.21875 C 1.804688 -24.925781 1.890625 -25.585938 2.046875 -26.203125 C 2.210938 -26.816406 2.488281 -27.335938 2.875 -27.765625 C 3.269531 -28.191406 3.859375 -28.40625 4.640625 -28.40625 C 5.722656 -28.40625 6.539062 -28.125 7.09375 -27.5625 C 7.65625 -27 8.046875 -26.296875 8.265625 -25.453125 C 8.492188 -24.609375 8.609375 -23.710938 8.609375 -22.765625 C 8.609375 -21.816406 8.609375 -20.96875 8.609375 -20.21875 C 8.609375 -19.207031 8.582031 -18.21875 8.53125 -17.25 C 8.488281 -16.28125 8.441406 -15.300781 8.390625 -14.3125 L 12.4375 -14.921875 C 12.457031 -16.160156 12.476562 -17.382812 12.5 -18.59375 C 12.53125 -19.800781 12.582031 -21.007812 12.65625 -22.21875 C 12.675781 -22.789062 12.695312 -23.40625 12.71875 -24.0625 C 12.75 -24.71875 12.851562 -25.320312 13.03125 -25.875 C 13.207031 -26.4375 13.503906 -26.898438 13.921875 -27.265625 C 14.335938 -27.628906 14.960938 -27.8125 15.796875 -27.8125 C 16.492188 -27.8125 17.0625 -27.609375 17.5 -27.203125 C 17.945312 -26.796875 18.300781 -26.300781 18.5625 -25.71875 C 18.832031 -25.144531 19.015625 -24.53125 19.109375 -23.875 C 19.210938 -23.21875 19.265625 -22.628906 19.265625 -22.109375 Z M 19.265625 -21.609375 "/></g></g><g transform="translate(113.553696, 117.243593)"><g><path d="M 17.828125 -22.328125 C 17.828125 -20.585938 17.398438 -19.003906 16.546875 -17.578125 C 15.691406 -16.160156 14.546875 -14.972656 13.109375 -14.015625 C 13.867188 -13.867188 14.523438 -13.609375 15.078125 -13.234375 C 15.628906 -12.867188 16.085938 -12.421875 16.453125 -11.890625 C 16.816406 -11.367188 17.09375 -10.773438 17.28125 -10.109375 C 17.46875 -9.441406 17.5625 -8.742188 17.5625 -8.015625 C 17.5625 -6.578125 17.226562 -5.320312 16.5625 -4.25 C 15.894531 -3.175781 15.03125 -2.289062 13.96875 -1.59375 C 12.914062 -0.90625 11.738281 -0.390625 10.4375 -0.046875 C 9.144531 0.285156 7.859375 0.453125 6.578125 0.453125 C 5.867188 0.453125 5.160156 0.398438 4.453125 0.296875 C 3.753906 0.203125 3.085938 0.0234375 2.453125 -0.234375 C 2.222656 -0.304688 2.03125 -0.613281 1.875 -1.15625 C 1.726562 -1.695312 1.609375 -2.359375 1.515625 -3.140625 C 1.429688 -3.921875 1.363281 -4.765625 1.3125 -5.671875 C 1.269531 -6.578125 1.234375 -7.441406 1.203125 -8.265625 C 1.179688 -9.097656 1.171875 -9.828125 1.171875 -10.453125 C 1.171875 -11.085938 1.171875 -11.53125 1.171875 -11.78125 C 1.171875 -12.664062 1.171875 -13.554688 1.171875 -14.453125 C 1.171875 -15.347656 1.195312 -16.234375 1.25 -17.109375 C 1.25 -17.335938 1.253906 -17.691406 1.265625 -18.171875 C 1.273438 -18.648438 1.285156 -19.1875 1.296875 -19.78125 C 1.316406 -20.375 1.34375 -20.992188 1.375 -21.640625 C 1.414062 -22.296875 1.46875 -22.90625 1.53125 -23.46875 C 1.59375 -24.039062 1.679688 -24.53125 1.796875 -24.9375 C 1.910156 -25.34375 2.039062 -25.59375 2.1875 -25.6875 C 2.769531 -26.0625 3.410156 -26.421875 4.109375 -26.765625 C 4.816406 -27.109375 5.546875 -27.40625 6.296875 -27.65625 C 7.054688 -27.90625 7.8125 -28.101562 8.5625 -28.25 C 9.320312 -28.40625 10.046875 -28.484375 10.734375 -28.484375 C 11.660156 -28.484375 12.554688 -28.347656 13.421875 -28.078125 C 14.296875 -27.816406 15.050781 -27.421875 15.6875 -26.890625 C 16.332031 -26.367188 16.847656 -25.722656 17.234375 -24.953125 C 17.628906 -24.179688 17.828125 -23.304688 17.828125 -22.328125 Z M 11.5625 -20.328125 C 11.5625 -20.753906 11.425781 -21.066406 11.15625 -21.265625 C 10.894531 -21.472656 10.550781 -21.578125 10.125 -21.578125 C 9.769531 -21.578125 9.394531 -21.5 9 -21.34375 C 8.613281 -21.195312 8.285156 -20.992188 8.015625 -20.734375 C 7.929688 -20.660156 7.859375 -20.445312 7.796875 -20.09375 C 7.734375 -19.75 7.679688 -19.351562 7.640625 -18.90625 C 7.609375 -18.46875 7.585938 -18.050781 7.578125 -17.65625 C 7.566406 -17.269531 7.5625 -17.015625 7.5625 -16.890625 C 7.5625 -16.835938 7.5625 -16.753906 7.5625 -16.640625 C 7.5625 -16.523438 7.566406 -16.40625 7.578125 -16.28125 C 7.585938 -16.15625 7.601562 -16.039062 7.625 -15.9375 C 7.65625 -15.84375 7.695312 -15.796875 7.75 -15.796875 C 8.175781 -15.796875 8.613281 -15.953125 9.0625 -16.265625 C 9.519531 -16.578125 9.929688 -16.96875 10.296875 -17.4375 C 10.660156 -17.90625 10.960938 -18.398438 11.203125 -18.921875 C 11.441406 -19.453125 11.5625 -19.921875 11.5625 -20.328125 Z M 11.40625 -9.40625 C 11.40625 -9.832031 11.253906 -10.132812 10.953125 -10.3125 C 10.648438 -10.488281 10.3125 -10.578125 9.9375 -10.578125 C 9.582031 -10.578125 9.207031 -10.492188 8.8125 -10.328125 C 8.425781 -10.171875 8.109375 -9.976562 7.859375 -9.75 C 7.785156 -9.695312 7.726562 -9.566406 7.6875 -9.359375 C 7.644531 -9.160156 7.617188 -8.941406 7.609375 -8.703125 C 7.597656 -8.460938 7.585938 -8.234375 7.578125 -8.015625 C 7.566406 -7.804688 7.5625 -7.664062 7.5625 -7.59375 C 7.5625 -7.539062 7.5625 -7.4375 7.5625 -7.28125 C 7.5625 -7.132812 7.566406 -6.976562 7.578125 -6.8125 C 7.585938 -6.65625 7.609375 -6.503906 7.640625 -6.359375 C 7.679688 -6.222656 7.726562 -6.15625 7.78125 -6.15625 C 8.132812 -6.15625 8.523438 -6.253906 8.953125 -6.453125 C 9.378906 -6.660156 9.773438 -6.914062 10.140625 -7.21875 C 10.503906 -7.519531 10.804688 -7.863281 11.046875 -8.25 C 11.285156 -8.644531 11.40625 -9.03125 11.40625 -9.40625 Z M 11.40625 -9.40625 "/></g></g></g></svg>